<svg xmlns="http://www.w3.org/2000/svg" version="1.1" xmlns:xlink="http://www.w3.org/1999/xlink" xmlns:svgjs="http://svgjs.com/svgjs" width="1444" height="200" preserveAspectRatio="none" viewBox="0 0 1444 200"><g mask="url(&quot;#SvgjsMask1078&quot;)" fill="none"><path d="M337.61 159.24 a2.87 2.87 0 1 0 5.74 0 a2.87 2.87 0 1 0 -5.74 0z" stroke="rgba(104, 70, 155, 1)"></path><path d="M15.96 111.12L17.77 111.12L17.77 125.8L15.96 125.8z" fill="rgba(104, 70, 155, 1)"></path><path d="M717.1 3.9L721.1 3.9L721.1 7.9L717.1 7.9z" stroke="rgba(104, 70, 155, 1)"></path><path d="M576.85 175.29 a0.91 0.91 0 1 0 1.82 0 a0.91 0.91 0 1 0 -1.82 0z" fill="rgba(104, 70, 155, 1)"></path><path d="M221.43 88.43a12.06 12.06 0 1 0 0.83 24.1z" fill="rgba(104, 70, 155, 1)"></path><path d="M203.32 139.64L212.69 139.64L212.69 149.01L203.32 149.01z" stroke="rgba(104, 70, 155, 1)"></path><path d="M589.74 19.45L604.92 19.45L604.92 33.84L589.74 33.84z" stroke="rgba(104, 70, 155, 1)"></path><path d="M771.98 74.63L784.39 74.63L784.39 79.76L771.98 79.76z" stroke="rgba(104, 70, 155, 1)"></path><path d="M244.89 164.32L253.27 164.32L253.27 168.54L244.89 168.54z" stroke="rgba(104, 70, 155, 1)"></path><path d="M445.36 157.53 a1.06 1.06 0 1 0 2.12 0 a1.06 1.06 0 1 0 -2.12 0z" stroke="rgba(104, 70, 155, 1)"></path><path d="M366.66 111.55a9.58 9.58 0 1 0-9.44-16.68z" fill="rgba(104, 70, 155, 1)"></path><path d="M1434.9 30.61 a4.97 4.97 0 1 0 9.94 0 a4.97 4.97 0 1 0 -9.94 0z" stroke="rgba(104, 70, 155, 1)"></path><path d="M603.18 75.51a0.47 0.47 0 1 0-0.55 0.76z" stroke="rgba(104, 70, 155, 1)"></path><path d="M1186.87 128.38 a6 6 0 1 0 12 0 a6 6 0 1 0 -12 0z" stroke="rgba(104, 70, 155, 1)"></path><path d="M1415.81 145.85L1430.49 145.85L1430.49 160.53L1415.81 160.53z" fill="rgba(104, 70, 155, 1)"></path><path d="M408.49 31.52a16.45 16.45 0 1 0-22.77-23.75z" stroke="rgba(104, 70, 155, 1)"></path><path d="M50.5 116.17a15.17 15.17 0 1 0 30.02-4.44z" stroke="rgba(104, 70, 155, 1)"></path><path d="M537.24 122.78 a6.98 6.98 0 1 0 13.96 0 a6.98 6.98 0 1 0 -13.96 0z" fill="rgba(104, 70, 155, 1)"></path><path d="M202.9 117.77a5.13 5.13 0 1 0 9.1-4.75z" fill="rgba(104, 70, 155, 1)"></path><path d="M1032.59 69.84 a9.62 9.62 0 1 0 19.24 0 a9.62 9.62 0 1 0 -19.24 0z" fill="rgba(104, 70, 155, 1)"></path><path d="M746.98 175.2 a1.86 1.86 0 1 0 3.72 0 a1.86 1.86 0 1 0 -3.72 0z" stroke="rgba(104, 70, 155, 1)"></path><path d="M1102.65 19.36L1109.59 19.36L1109.59 21.8L1102.65 21.8z" stroke="rgba(104, 70, 155, 1)"></path><path d="M202.8 16.36L219.02 16.36L219.02 26.1L202.8 26.1z" fill="rgba(104, 70, 155, 1)"></path><path d="M1035.96 181.05L1037.25 181.05L1037.25 182.34L1035.96 182.34z" stroke="rgba(104, 70, 155, 1)"></path><path d="M1249.4 32.75L1258.44 32.75L1258.44 35.54L1249.4 35.54z" stroke="rgba(104, 70, 155, 1)"></path><path d="M1139.16 16.36 a15.26 15.26 0 1 0 30.52 0 a15.26 15.26 0 1 0 -30.52 0z" stroke="rgba(104, 70, 155, 1)"></path><path d="M205.43 138.16L212.19 138.16L212.19 151.59L205.43 151.59z" fill="rgba(104, 70, 155, 1)"></path><path d="M1246.68 129.28a19.79 19.79 0 1 0 18.01 35.24z" stroke="rgba(104, 70, 155, 1)"></path><path d="M774.35 14.65a11.65 11.65 0 1 0-14.5-18.24z" stroke="rgba(104, 70, 155, 1)"></path><path d="M709.36 122.72L724.47 122.72L724.47 134.01L709.36 134.01z" stroke="rgba(104, 70, 155, 1)"></path><path d="M1341.96 103.25 a4.59 4.59 0 1 0 9.18 0 a4.59 4.59 0 1 0 -9.18 0z" stroke="rgba(104, 70, 155, 1)"></path><path d="M557.93 105.64 a14.17 14.17 0 1 0 28.34 0 a14.17 14.17 0 1 0 -28.34 0z" stroke="rgba(104, 70, 155, 1)"></path><path d="M292.9 151.52 a0.48 0.48 0 1 0 0.96 0 a0.48 0.48 0 1 0 -0.96 0z" stroke="rgba(104, 70, 155, 1)"></path><path d="M287.43 198.24a4.28 4.28 0 1 0 8.5 0.96z" fill="rgba(104, 70, 155, 1)"></path><path d="M1290.14 48.36L1306.02 48.36L1306.02 68.2L1290.14 68.2z" stroke="rgba(104, 70, 155, 1)"></path><path d="M28.51 35.93L46.64 35.93L46.64 36.52L28.51 36.52z" stroke="rgba(104, 70, 155, 1)"></path><path d="M293.23 57.8L299 57.8L299 63.57L293.23 63.57z" fill="rgba(104, 70, 155, 1)"></path><path d="M1259.67 179.84L1270.93 179.84L1270.93 180.34L1259.67 180.34z" stroke="rgba(104, 70, 155, 1)"></path><path d="M316.19 45.81a15.24 15.24 0 1 0 25.21-17.13z" stroke="rgba(104, 70, 155, 1)"></path><path d="M550.91 5.26a4.11 4.11 0 1 0-4.1-7.13z" fill="rgba(104, 70, 155, 1)"></path><path d="M142.06 45.74a17.47 17.47 0 1 0-10.07-33.45z" stroke="rgba(104, 70, 155, 1)"></path><path d="M919.74 73.14 a10.14 10.14 0 1 0 20.28 0 a10.14 10.14 0 1 0 -20.28 0z" fill="rgba(104, 70, 155, 1)"></path><path d="M996.63 190.02L1015.7 190.02L1015.7 209.09L996.63 209.09z" stroke="rgba(104, 70, 155, 1)"></path><path d="M1114.29 88.82a19.62 19.62 0 1 0 36.66-13.98z" stroke="rgba(104, 70, 155, 1)"></path><path d="M130.35 95.23L148.61 95.23L148.61 98.28L130.35 98.28z" stroke="rgba(104, 70, 155, 1)"></path><path d="M147.92 68.24L155.12 68.24L155.12 85.51L147.92 85.51z" fill="rgba(104, 70, 155, 1)"></path><path d="M564.28 168.93L581.81 168.93L581.81 186.46L564.28 186.46z" fill="rgba(104, 70, 155, 1)"></path><path d="M1406.5 25 a17.6 17.6 0 1 0 35.2 0 a17.6 17.6 0 1 0 -35.2 0z" fill="rgba(104, 70, 155, 1)"></path><path d="M1382.93 196.44L1393.29 196.44L1393.29 199.81L1382.93 199.81z" fill="rgba(104, 70, 155, 1)"></path><path d="M549.86 9.6 a18.6 18.6 0 1 0 37.2 0 a18.6 18.6 0 1 0 -37.2 0z" stroke="rgba(104, 70, 155, 1)"></path><path d="M1441.2 127.55L1446.41 127.55L1446.41 132.76L1441.2 132.76z" fill="rgba(104, 70, 155, 1)"></path><path d="M-0.37 115.86 a3.67 3.67 0 1 0 7.34 0 a3.67 3.67 0 1 0 -7.34 0z" stroke="rgba(104, 70, 155, 1)"></path><path d="M503.83 3.36L505.41 3.36L505.41 4.94L503.83 4.94z" stroke="rgba(104, 70, 155, 1)"></path><path d="M1316.51 144.09L1328.55 144.09L1328.55 156.13L1316.51 156.13z" stroke="rgba(104, 70, 155, 1)"></path><path d="M807.34 139.11a15.12 15.12 0 1 0 27.62-12.3z" stroke="rgba(104, 70, 155, 1)"></path><path d="M1369.65 120.46 a6.67 6.67 0 1 0 13.34 0 a6.67 6.67 0 1 0 -13.34 0z" stroke="rgba(104, 70, 155, 1)"></path><path d="M592.39 30.59L609.68 30.59L609.68 47.88L592.39 47.88z" stroke="rgba(104, 70, 155, 1)"></path><path d="M956.44 82.28a15.39 15.39 0 1 0-30.16 6.15z" stroke="rgba(104, 70, 155, 1)"></path><path d="M101.13 40.01L115.85 40.01L115.85 47.78L101.13 47.78z" fill="rgba(104, 70, 155, 1)"></path><path d="M525.07 153.01 a7.91 7.91 0 1 0 15.82 0 a7.91 7.91 0 1 0 -15.82 0z" fill="rgba(104, 70, 155, 1)"></path><path d="M912.58 70.59 a9.72 9.72 0 1 0 19.44 0 a9.72 9.72 0 1 0 -19.44 0z" fill="rgba(104, 70, 155, 1)"></path><path d="M92.34 193.29L95.77 193.29L95.77 196.72L92.34 196.72z" fill="rgba(104, 70, 155, 1)"></path><path d="M1284.16 158.09 a11.18 11.18 0 1 0 22.36 0 a11.18 11.18 0 1 0 -22.36 0z" stroke="rgba(104, 70, 155, 1)"></path><path d="M1238.36 180.93L1242.45 180.93L1242.45 185.02L1238.36 185.02z" stroke="rgba(104, 70, 155, 1)"></path><path d="M325.52 70.64a4.89 4.89 0 1 0 1.14 9.71z" stroke="rgba(104, 70, 155, 1)"></path><path d="M1247.22 152.98L1248.14 152.98L1248.14 153.9L1247.22 153.9z" fill="rgba(104, 70, 155, 1)"></path><path d="M975.39 172.31L979.99 172.31L979.99 185.75L975.39 185.75z" fill="rgba(104, 70, 155, 1)"></path><path d="M299.53 188.97 a0.52 0.52 0 1 0 1.04 0 a0.52 0.52 0 1 0 -1.04 0z" stroke="rgba(104, 70, 155, 1)"></path><path d="M1201.79 101.73L1217.99 101.73L1217.99 117.93L1201.79 117.93z" stroke="rgba(104, 70, 155, 1)"></path><path d="M1170.86 195.24a9.26 9.26 0 1 0-17.65-5.62z" stroke="rgba(104, 70, 155, 1)"></path><path d="M113.02 161.73L122.64 161.73L122.64 171.35L113.02 171.35z" fill="rgba(104, 70, 155, 1)"></path><path d="M1178.56 47.07L1184.14 47.07L1184.14 52.65L1178.56 52.65z" fill="rgba(104, 70, 155, 1)"></path><path d="M9.71 50.52L25.33 50.52L25.33 66.14L9.71 66.14z" stroke="rgba(104, 70, 155, 1)"></path><path d="M970.56 132.07L982.59 132.07L982.59 144.1L970.56 144.1z" stroke="rgba(104, 70, 155, 1)"></path><path d="M1016.07 189.72L1030.9 189.72L1030.9 204.55L1016.07 204.55z" stroke="rgba(104, 70, 155, 1)"></path><path d="M694.39 101.77L707.41 101.77L707.41 101.79L694.39 101.79z" fill="rgba(104, 70, 155, 1)"></path><path d="M807.1 99.42 a8.58 8.58 0 1 0 17.16 0 a8.58 8.58 0 1 0 -17.16 0z" fill="rgba(104, 70, 155, 1)"></path><path d="M68.03 163.37L83.22 163.37L83.22 178.56L68.03 178.56z" stroke="rgba(104, 70, 155, 1)"></path><path d="M271 63.74L283.41 63.74L283.41 76.15L271 76.15z" fill="rgba(104, 70, 155, 1)"></path><path d="M292.52 67.61 a5.18 5.18 0 1 0 10.36 0 a5.18 5.18 0 1 0 -10.36 0z" stroke="rgba(104, 70, 155, 1)"></path><path d="M1223.71 115.1L1229.88 115.1L1229.88 120.33L1223.71 120.33z" stroke="rgba(104, 70, 155, 1)"></path><path d="M142.24 139.16L152.52 139.16L152.52 155.62L142.24 155.62z" stroke="rgba(104, 70, 155, 1)"></path><path d="M175.83 142.37a4.44 4.44 0 1 0 8.86-0.57z" stroke="rgba(104, 70, 155, 1)"></path><path d="M195.75 60.76L201.42 60.76L201.42 66.43L195.75 66.43z" stroke="rgba(104, 70, 155, 1)"></path><path d="M1169.94 116.56a19.9 19.9 0 1 0 36.62 15.58z" fill="rgba(104, 70, 155, 1)"></path><path d="M283.38 106.54 a0.13 0.13 0 1 0 0.26 0 a0.13 0.13 0 1 0 -0.26 0z" fill="rgba(104, 70, 155, 1)"></path><path d="M809.24 140.2L825.14 140.2L825.14 156.1L809.24 156.1z" stroke="rgba(104, 70, 155, 1)"></path><path d="M917.53 42.21a0.74 0.74 0 1 0-1.42 0.44z" fill="rgba(104, 70, 155, 1)"></path><path d="M109.97 27.21 a5.98 5.98 0 1 0 11.96 0 a5.98 5.98 0 1 0 -11.96 0z" fill="rgba(104, 70, 155, 1)"></path><path d="M992.87 111.42a6.14 6.14 0 1 0 11.98-2.7z" stroke="rgba(104, 70, 155, 1)"></path><path d="M718.21 42.83L727.96 42.83L727.96 52.58L718.21 52.58z" stroke="rgba(104, 70, 155, 1)"></path></g><defs><mask id="SvgjsMask1078"><rect width="1444" height="200" fill="#ffffff"></rect></mask></defs></svg>